<?xml version="1.0" encoding="UTF-8"?>
<svg width="32px" height="30px" viewBox="0 0 32 30" version="1.1" xmlns="http://www.w3.org/2000/svg" xmlns:xlink="http://www.w3.org/1999/xlink">
    <!-- Generator: Sketch 54.1 (76490) - https://sketchapp.com -->
    <title>AI</title>
    <desc>Created with Sketch.</desc>
    <g id="Symbols" stroke="none" stroke-width="1" fill="none" fill-rule="evenodd">
        <g id="Products" transform="translate(-672.000000, -362.000000)" stroke="#000000" stroke-width="0.85">
            <g id="ICONS" transform="translate(353.000000, 40.000000)">
                <g id="Row-3" transform="translate(0.000000, 322.000000)">
                    <g id="AI" transform="translate(319.000000, 0.000000)">
                        <path d="M1.8339,13.3398 C1.9279,12.8278 2.0769,12.3338 2.2749,11.8668 C2.6349,11.0168 3.1549,10.2518 3.7979,9.6088 C4.4399,8.9658 5.2059,8.4458 6.0559,8.0868 C6.9059,7.7268 7.8399,7.5288 8.8209,7.5288 C9.8019,7.5288 10.7359,7.7268 11.5859,8.0868 C12.4359,8.4458 13.2019,8.9658 13.8439,9.6088 C14.4869,10.2518 15.0069,11.0168 15.3669,11.8668 C15.5469,12.2918 15.6859,12.7378 15.7809,13.1998" id="Stroke-1" stroke-linecap="round"/>
                        <path d="M1.7751,13.3345 C1.9101,11.8455 2.2741,10.4225 2.8331,9.1015 C3.5521,7.4025 4.5921,5.8715 5.8781,4.5865 C7.1641,3.3005 8.6951,2.2605 10.3941,1.5415 C12.0941,0.8225 13.9631,0.4255 15.9251,0.4255 C17.8871,0.4255 19.7561,0.8225 21.4551,1.5415 C23.1551,2.2605 24.6861,3.3005 25.9721,4.5865 C27.2571,5.8715 28.2981,7.4025 29.0171,9.1015" id="Stroke-3" stroke-linecap="round"/>
                        <path d="M30.0759,15.918 C29.9419,17.411 29.5769,18.838 29.0169,20.161 C28.2979,21.861 27.2579,23.392 25.9719,24.677 C24.6859,25.963 23.1549,27.003 21.4559,27.722 C19.7559,28.441 17.8869,28.838 15.9249,28.838 C13.9629,28.838 12.0939,28.441 10.3949,27.722 C8.6949,27.003 7.1639,25.963 5.8779,24.677 C4.5929,23.392 3.5519,21.861 2.8329,20.161" id="Stroke-5" stroke-linecap="round"/>
                        <path d="M30.0182,15.9122 C29.9242,16.4282 29.7742,16.9252 29.5752,17.3962 C29.2152,18.2462 28.6952,19.0112 28.0522,19.6542 C27.4102,20.2972 26.6442,20.8172 25.7942,21.1772 C24.9442,21.5362 24.0102,21.7352 23.0292,21.7352 C22.0482,21.7352 21.1142,21.5362 20.2642,21.1772 C19.4142,20.8172 18.6482,20.2972 18.0062,19.6542 C17.3632,19.0112 16.8432,18.2462 16.4832,17.3962 C16.2852,16.9292 16.1362,16.4362 16.0422,15.9232" id="Stroke-7" stroke-linecap="round"/>
                        <path d="M31.0467,13.7184 C31.5507,14.2224 31.5507,15.0404 31.0467,15.5444 C30.5427,16.0494 29.7247,16.0494 29.2197,15.5444 C28.7157,15.0404 28.7157,14.2224 29.2197,13.7184 C29.7247,13.2144 30.5427,13.2144 31.0467,13.7184 Z" id="Stroke-9"/>
                        <path d="M16.8383,13.7184 C17.3423,14.2224 17.3423,15.0404 16.8383,15.5444 C16.3343,16.0494 15.5163,16.0494 15.0113,15.5444 C14.5073,15.0404 14.5073,14.2224 15.0113,13.7184 C15.5163,13.2144 16.3343,13.2144 16.8383,13.7184 Z" id="Stroke-11"/>
                        <path d="M2.63,13.7184 C3.134,14.2224 3.134,15.0404 2.63,15.5444 C2.126,16.0494 1.308,16.0494 0.803,15.5444 C0.299,15.0404 0.299,14.2224 0.803,13.7184 C1.308,13.2144 2.126,13.2144 2.63,13.7184 Z" id="Stroke-13"/>
                    </g>
                </g>
            </g>
        </g>
    </g>
</svg>