<?xml version="1.0" encoding="UTF-8"?>
<svg xmlns="http://www.w3.org/2000/svg" xmlns:xlink="http://www.w3.org/1999/xlink" width="25.6pt" height="24pt" viewBox="0 0 25.6 24" version="1.1">
<g id="surface1">
<path style="fill:#00000;stroke-width:0.68;stroke-linecap:round;stroke-linejoin:miter;stroke:rgb(45%,45%,45%);stroke-opacity:1;stroke-miterlimit:4;" d="M 1.46875 10.671875 C 1.542969 10.261719 1.660156 9.867188 1.820312 9.492188 C 2.109375 8.8125 2.523438 8.203125 3.039062 7.6875 C 3.550781 7.171875 4.164062 6.757812 4.84375 6.46875 C 5.523438 6.179688 6.273438 6.023438 7.058594 6.023438 C 7.839844 6.023438 8.589844 6.179688 9.269531 6.46875 C 9.949219 6.757812 10.5625 7.171875 11.074219 7.6875 C 11.589844 8.203125 12.003906 8.8125 12.292969 9.492188 C 12.4375 9.832031 12.546875 10.191406 12.625 10.558594 "/>
<path style="fill:none;stroke-width:0.68;stroke-linecap:round;stroke-linejoin:miter;stroke:rgb(45%,45%,45%);stroke-opacity:1;stroke-miterlimit:4;" d="M 1.421875 10.667969 C 1.527344 9.476562 1.820312 8.339844 2.265625 7.28125 C 2.839844 5.921875 3.671875 4.695312 4.703125 3.667969 C 5.730469 2.640625 6.957031 1.808594 8.316406 1.234375 C 9.675781 0.65625 11.171875 0.339844 12.738281 0.339844 C 14.308594 0.339844 15.804688 0.65625 17.164062 1.234375 C 18.523438 1.808594 19.75 2.640625 20.777344 3.667969 C 21.804688 4.695312 22.636719 5.921875 23.214844 7.28125 "/>
<path style="fill:none;stroke-width:0.68;stroke-linecap:round;stroke-linejoin:miter;stroke:rgb(45%,45%,45%);stroke-opacity:1;stroke-miterlimit:4;" d="M 24.0625 12.734375 C 23.953125 13.929688 23.660156 15.070312 23.214844 16.128906 C 22.636719 17.488281 21.804688 18.714844 20.777344 19.742188 C 19.75 20.769531 18.523438 21.601562 17.164062 22.175781 C 15.804688 22.753906 14.308594 23.070312 12.738281 23.070312 C 11.171875 23.070312 9.675781 22.753906 8.316406 22.175781 C 6.957031 21.601562 5.730469 20.769531 4.703125 19.742188 C 3.675781 18.714844 2.839844 17.488281 2.265625 16.128906 "/>
<path style="fill:none;stroke-width:0.68;stroke-linecap:round;stroke-linejoin:miter;stroke:rgb(45%,45%,45%);stroke-opacity:1;stroke-miterlimit:4;" d="M 24.015625 12.730469 C 23.9375 13.140625 23.820312 13.539062 23.660156 13.917969 C 23.371094 14.597656 22.957031 15.207031 22.441406 15.722656 C 21.929688 16.238281 21.316406 16.652344 20.636719 16.941406 C 19.957031 17.230469 19.207031 17.386719 18.421875 17.386719 C 17.636719 17.386719 16.890625 17.230469 16.210938 16.941406 C 15.53125 16.652344 14.917969 16.238281 14.40625 15.722656 C 13.890625 15.207031 13.472656 14.597656 13.1875 13.917969 C 13.027344 13.542969 12.910156 13.148438 12.832031 12.738281 "/>
<path style="fill:none;stroke-width:0.68;stroke-linecap:butt;stroke-linejoin:miter;stroke:rgb(45%,45%,45%);stroke-opacity:1;stroke-miterlimit:4;" d="M 24.835938 10.976562 C 25.242188 11.378906 25.242188 12.03125 24.835938 12.433594 C 24.433594 12.839844 23.78125 12.839844 23.375 12.433594 C 22.972656 12.03125 22.972656 11.378906 23.375 10.976562 C 23.78125 10.570312 24.433594 10.570312 24.835938 10.976562 Z M 24.835938 10.976562 "/>
<path style="fill:none;stroke-width:0.68;stroke-linecap:butt;stroke-linejoin:miter;stroke:rgb(45%,45%,45%);stroke-opacity:1;stroke-miterlimit:4;" d="M 13.46875 10.976562 C 13.875 11.378906 13.875 12.03125 13.46875 12.433594 C 13.066406 12.839844 12.414062 12.839844 12.007812 12.433594 C 11.605469 12.03125 11.605469 11.378906 12.007812 10.976562 C 12.414062 10.570312 13.066406 10.570312 13.46875 10.976562 Z M 13.46875 10.976562 "/>
<path style="fill:none;stroke-width:0.68;stroke-linecap:butt;stroke-linejoin:miter;stroke:rgb(45%,45%,45%);stroke-opacity:1;stroke-miterlimit:4;" d="M 2.105469 10.976562 C 2.507812 11.378906 2.507812 12.03125 2.105469 12.433594 C 1.699219 12.839844 1.046875 12.839844 0.640625 12.433594 C 0.238281 12.03125 0.238281 11.378906 0.640625 10.976562 C 1.046875 10.570312 1.699219 10.570312 2.105469 10.976562 Z M 2.105469 10.976562 "/>
</g>
</svg>
